<svg xmlns="http://www.w3.org/2000/svg" viewBox="0 0 815.83 815.83"><defs><style>.cls-1{fill:#fff;}.cls-2{fill:#006341;}.cls-3{fill:#ce1126;}</style></defs><title>el</title><g id="Layer_8" data-name="Layer 8"><circle cx="407.91" cy="407.91" r="407.91"/><path class="cls-1" d="M734.49,481.46h-12v-41H529.11a45,45,0,0,1-58.22,0H277.46v41H265.51c-37.56,0-67,28.73-67,65.41s29.41,65.4,67,65.4h11.95v44.94a116.46,116.46,0,0,0,36.08,84.69c23,22.14,53.73,34.33,86.41,34.33H601.7c67.76,0,120.84-52.28,120.84-119V612.27h12c37.56,0,67-28.73,67-65.4S772.05,481.46,734.49,481.46Z" transform="translate(-81.94 -96.93)"/><path class="cls-1" d="M734.49,515.62h-13v62.49h13c22.48,0,32.71-16.19,32.71-31.23S757,515.62,734.49,515.62Z" transform="translate(-81.94 -96.93)"/><path d="M734.49,516.62h-12v60.49h12c21.79,0,31.71-15.67,31.71-30.23S756.28,516.62,734.49,516.62Z" transform="translate(-81.94 -96.93)"/><path d="M265.51,515.62c-22.47,0-32.71,16.19-32.71,31.23s10.24,31.26,32.71,31.26h12.95V515.62Z" transform="translate(-81.94 -96.93)"/><path class="cls-1" d="M600.88,223.36l-30.18,14c-63.53,11.2-118.42,27.07-167.78,48.53C344.39,311.38,294.54,344,248.86,382.32c-2.55,2.15-4.51,3.84-6.11,5.24-7.44,6.45-7.44,6.45-24.52,14.28-4.33,2-9.76,4.48-16.69,7.71l14,30.05L253,422.15c107.25-90,190-128.56,327.83-152.86l34.07-15.88Z" transform="translate(-81.94 -96.93)"/><path class="cls-1" d="M413.09,244.49a43.76,43.76,0,0,0-79.57,36.43l5.28,11.53L369,278.65l-5.28-11.53c-3-6.57.62-11.85,5.26-14s11-1.42,14,5.14l5.28,11.53L418.37,256Z" transform="translate(-81.94 -96.93)"/></g><g id="Layer_2" data-name="Layer 2"><path class="cls-1" d="M529.11,440.47a45,45,0,0,1-58.22,0Z" transform="translate(-81.94 -96.93)"/><path class="cls-2" d="M545,406.15a44.89,44.89,0,0,1-15.89,34.32H470.89A45,45,0,1,1,545,406.15Z" transform="translate(-81.94 -96.93)"/><circle class="cls-1" cx="565.08" cy="264.22" r="55"/><circle class="cls-3" cx="725.55" cy="185.91" r="65"/></g></svg>